<svg width="60" height="60" fill="none" xmlns="http://www.w3.org/2000/svg"><rect width="60" height="60" rx="30" fill="#181818"/><path d="M30 15a15 15 0 000 30V15z" fill="url(#paint0_linear_135_75)"/><path d="M30 16.875a13.125 13.125 0 000 26.25v-26.25z" fill="url(#paint1_linear_135_75)"/><path d="M30 18.75a11.25 11.25 0 100 22.5v-22.5z" fill="url(#paint2_linear_135_75)"/><path d="M30 39.375a9.376 9.376 0 01-3.588-18.036A9.376 9.376 0 0130 20.625v18.75z" fill="url(#paint3_linear_135_75)"/><path d="M30 37.5a7.5 7.5 0 010-15v15z" fill="url(#paint4_angular_135_75)"/><path d="M30 45a15 15 0 000-30v30z" fill="url(#paint5_linear_135_75)"/><path d="M30 43.125a13.125 13.125 0 000-26.25v26.25z" fill="url(#paint6_linear_135_75)"/><path d="M30 41.25a11.25 11.25 0 100-22.5v22.5z" fill="url(#paint7_linear_135_75)"/><path d="M30 20.625a9.376 9.376 0 013.588 18.036 9.376 9.376 0 01-3.588.714v-18.75z" fill="url(#paint8_linear_135_75)"/><path d="M30 22.5a7.5 7.5 0 010 15v-15z" fill="url(#paint9_angular_135_75)"/><defs><linearGradient id="paint0_linear_135_75" x1="15" y1="30" x2="33.281" y2="29.531" gradientUnits="userSpaceOnUse"><stop stop-color="#fff"/><stop offset="1" stop-opacity="0"/></linearGradient><linearGradient id="paint1_linear_135_75" x1="16.875" y1="30" x2="32.871" y2="29.59" gradientUnits="userSpaceOnUse"><stop stop-color="#fff"/><stop offset="1" stop-opacity="0"/></linearGradient><linearGradient id="paint2_linear_135_75" x1="18.75" y1="30" x2="32.461" y2="29.648" gradientUnits="userSpaceOnUse"><stop stop-color="#fff"/><stop offset="1" stop-opacity="0"/></linearGradient><linearGradient id="paint3_linear_135_75" x1="20.625" y1="30" x2="32.051" y2="30.293" gradientUnits="userSpaceOnUse"><stop stop-color="#fff"/><stop offset="1" stop-opacity="0"/></linearGradient><linearGradient id="paint5_linear_135_75" x1="45" y1="30" x2="26.719" y2="30.469" gradientUnits="userSpaceOnUse"><stop stop-color="#fff"/><stop offset="1" stop-opacity="0"/></linearGradient><linearGradient id="paint6_linear_135_75" x1="43.125" y1="30" x2="27.129" y2="30.41" gradientUnits="userSpaceOnUse"><stop stop-color="#fff"/><stop offset="1" stop-opacity="0"/></linearGradient><linearGradient id="paint7_linear_135_75" x1="41.25" y1="30" x2="27.539" y2="30.352" gradientUnits="userSpaceOnUse"><stop stop-color="#fff"/><stop offset="1" stop-opacity="0"/></linearGradient><linearGradient id="paint8_linear_135_75" x1="39.375" y1="30" x2="27.949" y2="29.707" gradientUnits="userSpaceOnUse"><stop stop-color="#fff"/><stop offset="1" stop-opacity="0"/></linearGradient><radialGradient id="paint4_angular_135_75" cx="0" cy="0" r="1" gradientUnits="userSpaceOnUse" gradientTransform="translate(26.25 30) scale(5.39063)"><stop stop-opacity="0"/><stop stop-color="#fff"/></radialGradient><radialGradient id="paint9_angular_135_75" cx="0" cy="0" r="1" gradientUnits="userSpaceOnUse" gradientTransform="rotate(-180 16.875 15) scale(5.39063)"><stop stop-opacity="0"/><stop stop-color="#fff"/></radialGradient></defs></svg>