<svg width="97" height="36" fill="none" xmlns="http://www.w3.org/2000/svg"><path d="M15 3a15 15 0 000 30V3z" fill="url(#paint0_linear_160_22)"/><path d="M15 4.875a13.125 13.125 0 000 26.25V4.875z" fill="url(#paint1_linear_160_22)"/><path d="M15 6.75a11.25 11.25 0 100 22.5V6.75z" fill="url(#paint2_linear_160_22)"/><path d="M15 27.375a9.376 9.376 0 01-3.588-18.036A9.376 9.376 0 0115 8.625v18.75z" fill="url(#paint3_linear_160_22)"/><path d="M15 25.5a7.5 7.5 0 010-15v15z" fill="url(#paint4_angular_160_22)"/><path d="M15 33a15 15 0 000-30v30z" fill="url(#paint5_linear_160_22)"/><path d="M15 31.125a13.125 13.125 0 000-26.25v26.25z" fill="url(#paint6_linear_160_22)"/><path d="M15 29.25a11.25 11.25 0 100-22.5v22.5z" fill="url(#paint7_linear_160_22)"/><path d="M15 8.625a9.376 9.376 0 010 18.75V8.625z" fill="url(#paint8_linear_160_22)"/><path d="M15 10.5a7.5 7.5 0 010 15v-15z" fill="url(#paint9_angular_160_22)"/><path d="M37.636 5.432h2.568l1.224 6.048h.024l1.236-6.048h2.556V14H43.66V7.16h-.024L42.112 14h-1.344l-1.524-6.84h-.024V14h-1.584V5.432zm12.423 5.34L49.23 6.92h-.024l-.828 3.852h1.68zm.228-5.34L52.555 14h-1.8l-.396-1.812h-2.28L47.683 14h-1.8l2.268-8.568h2.136zm2.864 0h3.192c.72 0 1.28.184 1.68.552.4.36.6.912.6 1.656 0 .576-.116 1.048-.348 1.416-.232.36-.592.592-1.08.696v.024c.432.064.748.204.948.42.2.216.324.564.372 1.044.016.16.028.336.036.528l.024.624c.016.456.04.804.072 1.044.048.24.152.404.312.492V14h-1.872a.923.923 0 01-.168-.408 4.88 4.88 0 01-.048-.492l-.048-1.644c-.016-.336-.1-.6-.252-.792-.152-.192-.408-.288-.768-.288h-.924V14H53.15V5.432zm1.728 3.744h.72c.416 0 .736-.096.96-.288.224-.2.336-.532.336-.996 0-.792-.4-1.188-1.2-1.188h-.816v2.472zm6.668-3.744v3.432h.024l2.184-3.432h1.872l-2.328 3.672L65.89 14h-1.944l-1.764-3.516-.636.972V14h-1.728V5.432h1.728zm9.505 0v1.416h-3.06v2.016h2.88v1.416h-2.88v2.304h3.18V14h-4.908V5.432h4.788zm6.005 0v1.416h-1.872V14h-1.728V6.848h-1.872V5.432h5.472zM77.891 14V5.432h1.728V14h-1.728zm5.002-8.568L84.98 11.3h.024V5.432h1.584V14H84.62l-2.112-6h-.024v6H80.9V5.432h1.992zm8.702 2.544c0-.16-.02-.324-.06-.492a1.413 1.413 0 00-.168-.456 1.01 1.01 0 00-.312-.348.688.688 0 00-.444-.144c-.416 0-.716.232-.9.696-.184.464-.276 1.232-.276 2.304 0 .512.016.976.048 1.392.032.416.088.772.168 1.068.088.288.208.512.36.672a.853.853 0 00.948.144c.128-.056.244-.14.348-.252.112-.112.204-.252.276-.42.072-.176.108-.38.108-.612v-.876h-1.14V9.38h2.796V14h-1.272v-.792h-.024c-.208.336-.46.576-.756.72-.288.136-.636.204-1.044.204-.528 0-.96-.092-1.296-.276-.328-.184-.588-.468-.78-.852-.184-.384-.308-.856-.372-1.416a17.786 17.786 0 01-.096-1.968c0-.72.044-1.352.132-1.896.096-.544.256-.996.48-1.356.224-.368.52-.644.888-.828.368-.184.828-.276 1.38-.276.944 0 1.624.236 2.04.708.416.464.624 1.132.624 2.004h-1.656zM41.176 25.772l-.828-3.852h-.024l-.828 3.852h1.68zm.228-5.34L43.672 29h-1.8l-.396-1.812h-2.28L38.8 29H37l2.268-8.568h2.136zm6.668 2.544c0-.16-.02-.324-.06-.492a1.413 1.413 0 00-.168-.456 1.01 1.01 0 00-.312-.348.688.688 0 00-.444-.144c-.416 0-.716.232-.9.696-.184.464-.276 1.232-.276 2.304 0 .512.016.976.048 1.392.032.416.088.772.168 1.068.088.288.208.512.36.672a.853.853 0 00.948.144c.128-.056.244-.14.348-.252.112-.112.204-.252.276-.42.072-.176.108-.38.108-.612v-.876h-1.14V24.38h2.796V29h-1.272v-.792h-.024c-.208.336-.46.576-.756.72-.288.136-.636.204-1.044.204-.528 0-.96-.092-1.296-.276-.328-.184-.588-.468-.78-.852-.184-.384-.308-.856-.372-1.416a17.786 17.786 0 01-.096-1.968c0-.72.044-1.352.132-1.896.096-.544.256-.996.48-1.356.224-.368.52-.644.888-.828.368-.184.828-.276 1.38-.276.944 0 1.624.236 2.04.708.416.464.624 1.132.624 2.004h-1.656zm7.652-2.544v1.416h-3.06v2.016h2.88v1.416h-2.88v2.304h3.18V29h-4.908v-8.568h4.788zm2.981 0l2.088 5.868h.024v-5.868h1.584V29h-1.968l-2.112-6h-.024v6h-1.584v-8.568h1.992zm8.559 2.892c0-.624-.076-1.076-.228-1.356-.144-.288-.412-.432-.804-.432a.815.815 0 00-.54.18c-.136.112-.244.3-.324.564-.08.256-.136.596-.168 1.02-.032.416-.048.928-.048 1.536 0 .648.02 1.172.06 1.572.048.4.116.712.204.936.096.216.212.364.348.444.144.072.308.108.492.108.152 0 .292-.024.42-.072a.758.758 0 00.348-.312c.096-.16.172-.38.228-.66.056-.288.084-.664.084-1.128h1.728c0 .464-.036.904-.108 1.32-.072.416-.208.78-.408 1.092a1.949 1.949 0 01-.828.732c-.352.176-.812.264-1.38.264-.648 0-1.164-.104-1.548-.312a2.141 2.141 0 01-.888-.9c-.2-.392-.332-.86-.396-1.404a17.672 17.672 0 01-.084-1.8c0-.648.028-1.244.084-1.788.064-.552.196-1.024.396-1.416.208-.392.504-.696.888-.912.384-.224.9-.336 1.548-.336.616 0 1.1.1 1.452.3.36.2.628.456.804.768.176.304.284.636.324.996.048.352.072.684.072.996h-1.728zm4.165-2.892l1.128 3.312h.024l1.2-3.312h1.872l-2.22 5.196V29h-1.728v-3.372l-2.22-5.196h1.944z" fill="url(#paint10_linear_160_22)"/><rect x="1" y="1" width="34" height="34" rx="17" fill="#181818"/><path d="M18 3a15 15 0 000 30V3z" fill="url(#paint11_linear_160_22)"/><path d="M18 4.875a13.125 13.125 0 000 26.25V4.875z" fill="url(#paint12_linear_160_22)"/><path d="M18 6.75a11.25 11.25 0 100 22.5V6.75z" fill="url(#paint13_linear_160_22)"/><path d="M18 27.375a9.376 9.376 0 01-3.588-18.036A9.376 9.376 0 0118 8.625v18.75z" fill="url(#paint14_linear_160_22)"/><path d="M18 25.5a7.5 7.5 0 010-15v15z" fill="url(#paint15_angular_160_22)"/><path d="M18 33a15 15 0 000-30v30z" fill="url(#paint16_linear_160_22)"/><path d="M18 31.125a13.125 13.125 0 000-26.25v26.25z" fill="url(#paint17_linear_160_22)"/><path d="M18 29.25a11.25 11.25 0 100-22.5v22.5z" fill="url(#paint18_linear_160_22)"/><path d="M18 8.625a9.376 9.376 0 010 18.75V8.625z" fill="url(#paint19_linear_160_22)"/><path d="M18 10.5a7.5 7.5 0 010 15v-15z" fill="url(#paint20_angular_160_22)"/><defs><linearGradient id="paint0_linear_160_22" x1="0" y1="18" x2="18.281" y2="17.531" gradientUnits="userSpaceOnUse"><stop stop-color="#fff"/><stop offset="1" stop-opacity="0"/></linearGradient><linearGradient id="paint1_linear_160_22" x1="1.875" y1="18" x2="17.871" y2="17.59" gradientUnits="userSpaceOnUse"><stop stop-color="#242121"/><stop offset="1" stop-opacity="0"/></linearGradient><linearGradient id="paint2_linear_160_22" x1="3.75" y1="18" x2="17.461" y2="17.648" gradientUnits="userSpaceOnUse"><stop stop-color="#242121"/><stop offset="1" stop-opacity="0"/></linearGradient><linearGradient id="paint3_linear_160_22" x1="5.625" y1="18" x2="17.051" y2="18.293" gradientUnits="userSpaceOnUse"><stop stop-color="#242121"/><stop offset="1" stop-opacity="0"/></linearGradient><linearGradient id="paint5_linear_160_22" x1="30" y1="18" x2="11.719" y2="18.469" gradientUnits="userSpaceOnUse"><stop stop-color="#fff"/><stop offset="1" stop-opacity="0"/></linearGradient><linearGradient id="paint6_linear_160_22" x1="28.125" y1="18" x2="12.129" y2="18.41" gradientUnits="userSpaceOnUse"><stop stop-color="#242121"/><stop offset="1" stop-opacity="0"/></linearGradient><linearGradient id="paint7_linear_160_22" x1="26.25" y1="18" x2="12.539" y2="18.352" gradientUnits="userSpaceOnUse"><stop stop-color="#242121"/><stop offset="1" stop-opacity="0"/></linearGradient><linearGradient id="paint8_linear_160_22" x1="24.375" y1="18" x2="12.949" y2="17.707" gradientUnits="userSpaceOnUse"><stop stop-color="#242121"/><stop offset="1" stop-opacity="0"/></linearGradient><linearGradient id="paint10_linear_160_22" x1="39.28" y1="6.5" x2="83" y2="37.125" gradientUnits="userSpaceOnUse"><stop offset=".02" stop-color="#666"/><stop offset=".505"/><stop offset="1" stop-color="#666"/></linearGradient><linearGradient id="paint11_linear_160_22" x1="3" y1="18" x2="21.281" y2="17.531" gradientUnits="userSpaceOnUse"><stop stop-color="#fff"/><stop offset="1" stop-opacity="0"/></linearGradient><linearGradient id="paint12_linear_160_22" x1="4.875" y1="18" x2="20.871" y2="17.59" gradientUnits="userSpaceOnUse"><stop stop-color="#fff"/><stop offset="1" stop-opacity="0"/></linearGradient><linearGradient id="paint13_linear_160_22" x1="6.75" y1="18" x2="20.461" y2="17.648" gradientUnits="userSpaceOnUse"><stop stop-color="#fff"/><stop offset="1" stop-opacity="0"/></linearGradient><linearGradient id="paint14_linear_160_22" x1="8.625" y1="18" x2="20.051" y2="18.293" gradientUnits="userSpaceOnUse"><stop stop-color="#fff"/><stop offset="1" stop-opacity="0"/></linearGradient><linearGradient id="paint16_linear_160_22" x1="33" y1="18" x2="14.719" y2="18.469" gradientUnits="userSpaceOnUse"><stop stop-color="#fff"/><stop offset="1" stop-opacity="0"/></linearGradient><linearGradient id="paint17_linear_160_22" x1="31.125" y1="18" x2="15.129" y2="18.41" gradientUnits="userSpaceOnUse"><stop stop-color="#fff"/><stop offset="1" stop-opacity="0"/></linearGradient><linearGradient id="paint18_linear_160_22" x1="29.25" y1="18" x2="15.539" y2="18.352" gradientUnits="userSpaceOnUse"><stop stop-color="#fff"/><stop offset="1" stop-opacity="0"/></linearGradient><linearGradient id="paint19_linear_160_22" x1="27.375" y1="18" x2="15.949" y2="17.707" gradientUnits="userSpaceOnUse"><stop stop-color="#fff"/><stop offset="1" stop-opacity="0"/></linearGradient><radialGradient id="paint4_angular_160_22" cx="0" cy="0" r="1" gradientUnits="userSpaceOnUse" gradientTransform="translate(11.25 18) scale(5.39063)"><stop stop-opacity="0"/><stop stop-color="#fff"/></radialGradient><radialGradient id="paint9_angular_160_22" cx="0" cy="0" r="1" gradientUnits="userSpaceOnUse" gradientTransform="rotate(-180 9.375 9) scale(5.39063)"><stop stop-opacity="0"/><stop stop-color="#fff"/></radialGradient><radialGradient id="paint15_angular_160_22" cx="0" cy="0" r="1" gradientUnits="userSpaceOnUse" gradientTransform="translate(14.25 18) scale(5.39063)"><stop/><stop stop-color="#fff"/></radialGradient><radialGradient id="paint20_angular_160_22" cx="0" cy="0" r="1" gradientUnits="userSpaceOnUse" gradientTransform="rotate(-180 10.875 9) scale(5.39063)"><stop/><stop stop-color="#fff"/></radialGradient></defs></svg>