<svg width="97" height="36" viewBox="0 0 97 36" fill="none" xmlns="http://www.w3.org/2000/svg">
<path d="M37.636 5.432H40.204L41.428 11.48H41.452L42.688 5.432H45.244V14H43.66V7.16H43.636L42.112 14H40.768L39.244 7.16H39.22V14H37.636V5.432ZM50.0588 10.772L49.2308 6.92H49.2068L48.3788 10.772H50.0588ZM50.2868 5.432L52.5548 14H50.7548L50.3588 12.188H48.0788L47.6828 14H45.8828L48.1508 5.432H50.2868ZM53.1508 5.432H56.3428C57.0628 5.432 57.6228 5.616 58.0228 5.984C58.4228 6.344 58.6228 6.896 58.6228 7.64C58.6228 8.216 58.5068 8.688 58.2748 9.056C58.0428 9.416 57.6828 9.648 57.1948 9.752V9.776C57.6268 9.84 57.9428 9.98 58.1428 10.196C58.3428 10.412 58.4668 10.76 58.5148 11.24C58.5308 11.4 58.5428 11.576 58.5508 11.768C58.5588 11.952 58.5668 12.16 58.5748 12.392C58.5908 12.848 58.6148 13.196 58.6468 13.436C58.6948 13.676 58.7988 13.84 58.9588 13.928V14H57.0868C56.9988 13.88 56.9428 13.744 56.9188 13.592C56.8948 13.432 56.8788 13.268 56.8708 13.1L56.8228 11.456C56.8068 11.12 56.7228 10.856 56.5708 10.664C56.4188 10.472 56.1628 10.376 55.8028 10.376H54.8788V14H53.1508V5.432ZM54.8788 9.176H55.5988C56.0148 9.176 56.3348 9.08 56.5588 8.888C56.7828 8.688 56.8948 8.356 56.8948 7.892C56.8948 7.1 56.4948 6.704 55.6948 6.704H54.8788V9.176ZM61.5468 5.432V8.864H61.5708L63.7548 5.432H65.6268L63.2988 9.104L65.8908 14H63.9468L62.1828 10.484L61.5468 11.456V14H59.8188V5.432H61.5468ZM71.0521 5.432V6.848H67.9921V8.864H70.8721V10.28H67.9921V12.584H71.1721V14H66.2641V5.432H71.0521ZM77.0574 5.432V6.848H75.1854V14H73.4574V6.848H71.5854V5.432H77.0574ZM77.891 14V5.432H79.619V14H77.891ZM82.8928 5.432L84.9808 11.3H85.0048V5.432H86.5888V14H84.6208L82.5088 8H82.4848V14H80.9008V5.432H82.8928ZM91.5954 7.976C91.5954 7.816 91.5754 7.652 91.5354 7.484C91.5034 7.316 91.4474 7.164 91.3674 7.028C91.2874 6.884 91.1834 6.768 91.0554 6.68C90.9354 6.584 90.7874 6.536 90.6114 6.536C90.1954 6.536 89.8954 6.768 89.7114 7.232C89.5274 7.696 89.4354 8.464 89.4354 9.536C89.4354 10.048 89.4514 10.512 89.4834 10.928C89.5154 11.344 89.5714 11.7 89.6514 11.996C89.7394 12.284 89.8594 12.508 90.0114 12.668C90.1714 12.82 90.3754 12.896 90.6234 12.896C90.7274 12.896 90.8394 12.868 90.9594 12.812C91.0874 12.756 91.2034 12.672 91.3074 12.56C91.4194 12.448 91.5114 12.308 91.5834 12.14C91.6554 11.964 91.6914 11.76 91.6914 11.528V10.652H90.5514V9.38H93.3474V14H92.0754V13.208H92.0514C91.8434 13.544 91.5914 13.784 91.2954 13.928C91.0074 14.064 90.6594 14.132 90.2514 14.132C89.7234 14.132 89.2914 14.04 88.9554 13.856C88.6274 13.672 88.3674 13.388 88.1754 13.004C87.9914 12.62 87.8674 12.148 87.8034 11.588C87.7394 11.02 87.7074 10.364 87.7074 9.62C87.7074 8.9 87.7514 8.268 87.8394 7.724C87.9354 7.18 88.0954 6.728 88.3194 6.368C88.5434 6 88.8394 5.724 89.2074 5.54C89.5754 5.356 90.0354 5.264 90.5874 5.264C91.5314 5.264 92.2114 5.5 92.6274 5.972C93.0434 6.436 93.2514 7.104 93.2514 7.976H91.5954ZM41.176 25.772L40.348 21.92H40.324L39.496 25.772H41.176ZM41.404 20.432L43.672 29H41.872L41.476 27.188H39.196L38.8 29H37L39.268 20.432H41.404ZM48.072 22.976C48.072 22.816 48.052 22.652 48.012 22.484C47.98 22.316 47.924 22.164 47.844 22.028C47.764 21.884 47.66 21.768 47.532 21.68C47.412 21.584 47.264 21.536 47.088 21.536C46.672 21.536 46.372 21.768 46.188 22.232C46.004 22.696 45.912 23.464 45.912 24.536C45.912 25.048 45.928 25.512 45.96 25.928C45.992 26.344 46.048 26.7 46.128 26.996C46.216 27.284 46.336 27.508 46.488 27.668C46.648 27.82 46.852 27.896 47.1 27.896C47.204 27.896 47.316 27.868 47.436 27.812C47.564 27.756 47.68 27.672 47.784 27.56C47.896 27.448 47.988 27.308 48.06 27.14C48.132 26.964 48.168 26.76 48.168 26.528V25.652H47.028V24.38H49.824V29H48.552V28.208H48.528C48.32 28.544 48.068 28.784 47.772 28.928C47.484 29.064 47.136 29.132 46.728 29.132C46.2 29.132 45.768 29.04 45.432 28.856C45.104 28.672 44.844 28.388 44.652 28.004C44.468 27.62 44.344 27.148 44.28 26.588C44.216 26.02 44.184 25.364 44.184 24.62C44.184 23.9 44.228 23.268 44.316 22.724C44.412 22.18 44.572 21.728 44.796 21.368C45.02 21 45.316 20.724 45.684 20.54C46.052 20.356 46.512 20.264 47.064 20.264C48.008 20.264 48.688 20.5 49.104 20.972C49.52 21.436 49.728 22.104 49.728 22.976H48.072ZM55.7239 20.432V21.848H52.6639V23.864H55.5439V25.28H52.6639V27.584H55.8439V29H50.9359V20.432H55.7239ZM58.7053 20.432L60.7933 26.3H60.8173V20.432H62.4013V29H60.4333L58.3213 23H58.2973V29H56.7133V20.432H58.7053ZM67.2639 23.324C67.2639 22.7 67.1879 22.248 67.0359 21.968C66.8919 21.68 66.6239 21.536 66.2319 21.536C66.0159 21.536 65.8359 21.596 65.6919 21.716C65.5559 21.828 65.4479 22.016 65.3679 22.28C65.2879 22.536 65.2319 22.876 65.1999 23.3C65.1679 23.716 65.1519 24.228 65.1519 24.836C65.1519 25.484 65.1719 26.008 65.2119 26.408C65.2599 26.808 65.3279 27.12 65.4159 27.344C65.5119 27.56 65.6279 27.708 65.7639 27.788C65.9079 27.86 66.0719 27.896 66.2559 27.896C66.4079 27.896 66.5479 27.872 66.6759 27.824C66.8119 27.768 66.9279 27.664 67.0239 27.512C67.1199 27.352 67.1959 27.132 67.2519 26.852C67.3079 26.564 67.3359 26.188 67.3359 25.724H69.0639C69.0639 26.188 69.0279 26.628 68.9559 27.044C68.8839 27.46 68.7479 27.824 68.5479 28.136C68.3559 28.448 68.0799 28.692 67.7199 28.868C67.3679 29.044 66.9079 29.132 66.3399 29.132C65.6919 29.132 65.1759 29.028 64.7919 28.82C64.4079 28.612 64.1119 28.312 63.9039 27.92C63.7039 27.528 63.5719 27.06 63.5079 26.516C63.4519 25.972 63.4239 25.372 63.4239 24.716C63.4239 24.068 63.4519 23.472 63.5079 22.928C63.5719 22.376 63.7039 21.904 63.9039 21.512C64.1119 21.12 64.4079 20.816 64.7919 20.6C65.1759 20.376 65.6919 20.264 66.3399 20.264C66.9559 20.264 67.4399 20.364 67.7919 20.564C68.1519 20.764 68.4199 21.02 68.5959 21.332C68.7719 21.636 68.8799 21.968 68.9199 22.328C68.9679 22.68 68.9919 23.012 68.9919 23.324H67.2639ZM71.4292 20.432L72.5572 23.744H72.5812L73.7812 20.432H75.6532L73.4332 25.628V29H71.7052V25.628L69.4852 20.432H71.4292Z" fill="url(#paint0_linear_160_36)"/>
<rect x="1" y="1" width="34" height="34" rx="17" fill="#181818"/>
<path d="M18 3C16.0302 3 14.0796 3.38799 12.2597 4.14181C10.4399 4.89563 8.78628 6.00052 7.3934 7.3934C6.00052 8.78628 4.89563 10.4399 4.14181 12.2597C3.38799 14.0796 3 16.0302 3 18C3 19.9698 3.38799 21.9204 4.14181 23.7403C4.89563 25.5601 6.00052 27.2137 7.3934 28.6066C8.78628 29.9995 10.4399 31.1044 12.2597 31.8582C14.0796 32.612 16.0302 33 18 33L18 3Z" fill="url(#paint1_linear_160_36)"/>
<path d="M18 4.875C16.2764 4.875 14.5697 5.21449 12.9773 5.87408C11.3849 6.53367 9.93799 7.50046 8.71922 8.71922C7.50045 9.93799 6.53367 11.3849 5.87408 12.9773C5.21449 14.5697 4.875 16.2764 4.875 18C4.875 19.7236 5.21449 21.4303 5.87408 23.0227C6.53367 24.6151 7.50046 26.062 8.71922 27.2808C9.93799 28.4995 11.3849 29.4663 12.9773 30.1259C14.5697 30.7855 16.2764 31.125 18 31.125L18 4.875Z" fill="url(#paint2_linear_160_36)"/>
<path d="M18 6.75C16.5226 6.75 15.0597 7.04099 13.6948 7.60636C12.3299 8.17172 11.0897 9.00039 10.045 10.045C9.00039 11.0897 8.17172 12.3299 7.60636 13.6948C7.04099 15.0597 6.75 16.5226 6.75 18C6.75 19.4774 7.04099 20.9403 7.60636 22.3052C8.17172 23.6701 9.00039 24.9103 10.045 25.955C11.0897 26.9996 12.3299 27.8283 13.6948 28.3936C15.0597 28.959 16.5226 29.25 18 29.25L18 6.75Z" fill="url(#paint3_linear_160_36)"/>
<path d="M18 27.375C16.7689 27.375 15.5498 27.1325 14.4123 26.6614C13.2749 26.1902 12.2414 25.4997 11.3709 24.6291C10.5003 23.7586 9.80977 22.7251 9.33863 21.5877C8.86749 20.4502 8.625 19.2311 8.625 18C8.625 16.7689 8.86749 15.5498 9.33863 14.4123C9.80977 13.2749 10.5003 12.2414 11.3709 11.3709C12.2414 10.5003 13.2749 9.80977 14.4123 9.33863C15.5498 8.86749 16.7689 8.625 18 8.625L18 27.375Z" fill="url(#paint4_linear_160_36)"/>
<path d="M18 25.5C17.0151 25.5 16.0398 25.306 15.1299 24.9291C14.2199 24.5522 13.3931 23.9997 12.6967 23.3033C12.0003 22.6069 11.4478 21.7801 11.0709 20.8701C10.694 19.9602 10.5 18.9849 10.5 18C10.5 17.0151 10.694 16.0398 11.0709 15.1299C11.4478 14.2199 12.0003 13.3931 12.6967 12.6967C13.3931 12.0003 14.2199 11.4478 15.1299 11.0709C16.0398 10.694 17.0151 10.5 18 10.5L18 25.5Z" fill="url(#paint5_linear_160_36)"/>
<path d="M18 33C19.9698 33 21.9204 32.612 23.7403 31.8582C25.5601 31.1044 27.2137 29.9995 28.6066 28.6066C29.9995 27.2137 31.1044 25.5601 31.8582 23.7403C32.612 21.9204 33 19.9698 33 18C33 16.0302 32.612 14.0796 31.8582 12.2597C31.1044 10.4399 29.9995 8.78628 28.6066 7.3934C27.2137 6.00052 25.5601 4.89563 23.7403 4.14181C21.9204 3.38799 19.9698 3 18 3L18 33Z" fill="url(#paint6_linear_160_36)"/>
<path d="M18 31.125C19.7236 31.125 21.4303 30.7855 23.0227 30.1259C24.6151 29.4663 26.062 28.4995 27.2808 27.2808C28.4995 26.062 29.4663 24.6151 30.1259 23.0227C30.7855 21.4303 31.125 19.7236 31.125 18C31.125 16.2764 30.7855 14.5697 30.1259 12.9773C29.4663 11.3849 28.4995 9.93799 27.2808 8.71922C26.062 7.50045 24.6151 6.53367 23.0227 5.87408C21.4303 5.21449 19.7236 4.875 18 4.875L18 31.125Z" fill="url(#paint7_linear_160_36)"/>
<path d="M18 29.25C19.4774 29.25 20.9403 28.959 22.3052 28.3936C23.6701 27.8283 24.9103 26.9996 25.955 25.955C26.9996 24.9103 27.8283 23.6701 28.3936 22.3052C28.959 20.9403 29.25 19.4774 29.25 18C29.25 16.5226 28.959 15.0597 28.3936 13.6948C27.8283 12.3299 26.9996 11.0897 25.955 10.045C24.9103 9.00039 23.6701 8.17172 22.3052 7.60635C20.9403 7.04099 19.4774 6.75 18 6.75L18 29.25Z" fill="url(#paint8_linear_160_36)"/>
<path d="M18 8.625C19.2311 8.625 20.4502 8.86749 21.5877 9.33863C22.7251 9.80977 23.7586 10.5003 24.6291 11.3709C25.4997 12.2414 26.1902 13.2749 26.6614 14.4123C27.1325 15.5498 27.375 16.7689 27.375 18C27.375 19.2311 27.1325 20.4502 26.6614 21.5877C26.1902 22.7251 25.4997 23.7586 24.6291 24.6291C23.7586 25.4997 22.7251 26.1902 21.5877 26.6614C20.4502 27.1325 19.2311 27.375 18 27.375L18 8.625Z" fill="url(#paint9_linear_160_36)"/>
<path d="M18 10.5C18.9849 10.5 19.9602 10.694 20.8701 11.0709C21.7801 11.4478 22.6069 12.0003 23.3033 12.6967C23.9997 13.3931 24.5522 14.2199 24.9291 15.1299C25.306 16.0398 25.5 17.0151 25.5 18C25.5 18.9849 25.306 19.9602 24.9291 20.8701C24.5522 21.7801 23.9997 22.6069 23.3033 23.3033C22.6069 23.9997 21.7801 24.5522 20.8701 24.9291C19.9602 25.306 18.9849 25.5 18 25.5L18 10.5Z" fill="url(#paint10_linear_160_36)"/>
<defs>
<linearGradient id="paint0_linear_160_36" x1="39.28" y1="6.5" x2="83" y2="37.1251" gradientUnits="userSpaceOnUse">
<stop offset="0.0200287" stop-color="#666666"/>
<stop offset="0.505029"/>
<stop offset="1" stop-color="#666666"/>
</linearGradient>
<linearGradient id="paint1_linear_160_36" x1="3" y1="18" x2="21.2812" y2="17.5313" gradientUnits="userSpaceOnUse">
<stop stop-color="white"/>
<stop offset="1" stop-opacity="0"/>
</linearGradient>
<linearGradient id="paint2_linear_160_36" x1="4.875" y1="18" x2="20.8711" y2="17.5898" gradientUnits="userSpaceOnUse">
<stop stop-color="white"/>
<stop offset="1" stop-opacity="0"/>
</linearGradient>
<linearGradient id="paint3_linear_160_36" x1="6.75" y1="18" x2="20.4609" y2="17.6484" gradientUnits="userSpaceOnUse">
<stop stop-color="white"/>
<stop offset="1" stop-opacity="0"/>
</linearGradient>
<linearGradient id="paint4_linear_160_36" x1="8.625" y1="18" x2="20.0508" y2="18.293" gradientUnits="userSpaceOnUse">
<stop stop-color="white"/>
<stop offset="1" stop-opacity="0"/>
</linearGradient>
<linearGradient id="paint5_linear_160_36" x1="10.5" y1="18" x2="18" y2="18" gradientUnits="userSpaceOnUse">
<stop/>
<stop/>
<stop offset="0.985578" stop-color="#E5E5E5"/>
</linearGradient>
<linearGradient id="paint6_linear_160_36" x1="33" y1="18" x2="14.7188" y2="18.4687" gradientUnits="userSpaceOnUse">
<stop stop-color="white"/>
<stop offset="1" stop-opacity="0"/>
</linearGradient>
<linearGradient id="paint7_linear_160_36" x1="31.125" y1="18" x2="15.1289" y2="18.4102" gradientUnits="userSpaceOnUse">
<stop stop-color="white"/>
<stop offset="1" stop-opacity="0"/>
</linearGradient>
<linearGradient id="paint8_linear_160_36" x1="29.25" y1="18" x2="15.5391" y2="18.3516" gradientUnits="userSpaceOnUse">
<stop stop-color="white"/>
<stop offset="1" stop-opacity="0"/>
</linearGradient>
<linearGradient id="paint9_linear_160_36" x1="27.375" y1="18" x2="15.9492" y2="17.707" gradientUnits="userSpaceOnUse">
<stop stop-color="white"/>
<stop offset="1" stop-opacity="0"/>
</linearGradient>
<linearGradient id="paint10_linear_160_36" x1="25.5" y1="18" x2="18" y2="18" gradientUnits="userSpaceOnUse">
<stop/>
<stop offset="1" stop-color="#E5E5E5"/>
</linearGradient>
</defs>
</svg>
