<svg width="97" height="36" viewBox="0 0 97 36" fill="none" xmlns="http://www.w3.org/2000/svg">
<g clip-path="url(#clip0_199_2)">
<rect width="97" height="36" rx="2" fill="white" fill-opacity="0.22"/>
<path d="M38.636 5.432H41.204L42.428 11.48H42.452L43.688 5.432H46.244V14H44.66V7.16H44.636L43.112 14H41.768L40.244 7.16H40.22V14H38.636V5.432ZM51.0588 10.772L50.2308 6.92H50.2068L49.3788 10.772H51.0588ZM51.2868 5.432L53.5548 14H51.7548L51.3588 12.188H49.0788L48.6828 14H46.8828L49.1508 5.432H51.2868ZM54.1508 5.432H57.3428C58.0628 5.432 58.6228 5.616 59.0228 5.984C59.4228 6.344 59.6228 6.896 59.6228 7.64C59.6228 8.216 59.5068 8.688 59.2748 9.056C59.0428 9.416 58.6828 9.648 58.1948 9.752V9.776C58.6268 9.84 58.9428 9.98 59.1428 10.196C59.3428 10.412 59.4668 10.76 59.5148 11.24C59.5308 11.4 59.5428 11.576 59.5508 11.768C59.5588 11.952 59.5668 12.16 59.5748 12.392C59.5908 12.848 59.6148 13.196 59.6468 13.436C59.6948 13.676 59.7988 13.84 59.9588 13.928V14H58.0868C57.9988 13.88 57.9428 13.744 57.9188 13.592C57.8948 13.432 57.8788 13.268 57.8708 13.1L57.8228 11.456C57.8068 11.12 57.7228 10.856 57.5708 10.664C57.4188 10.472 57.1628 10.376 56.8028 10.376H55.8788V14H54.1508V5.432ZM55.8788 9.176H56.5988C57.0148 9.176 57.3348 9.08 57.5588 8.888C57.7828 8.688 57.8948 8.356 57.8948 7.892C57.8948 7.1 57.4948 6.704 56.6948 6.704H55.8788V9.176ZM62.5468 5.432V8.864H62.5708L64.7548 5.432H66.6268L64.2988 9.104L66.8908 14H64.9468L63.1828 10.484L62.5468 11.456V14H60.8188V5.432H62.5468ZM72.0521 5.432V6.848H68.9921V8.864H71.8721V10.28H68.9921V12.584H72.1721V14H67.2641V5.432H72.0521ZM78.0574 5.432V6.848H76.1854V14H74.4574V6.848H72.5854V5.432H78.0574ZM78.891 14V5.432H80.619V14H78.891ZM83.8928 5.432L85.9808 11.3H86.0048V5.432H87.5888V14H85.6208L83.5088 8H83.4848V14H81.9008V5.432H83.8928ZM92.5954 7.976C92.5954 7.816 92.5754 7.652 92.5354 7.484C92.5034 7.316 92.4474 7.164 92.3674 7.028C92.2874 6.884 92.1834 6.768 92.0554 6.68C91.9354 6.584 91.7874 6.536 91.6114 6.536C91.1954 6.536 90.8954 6.768 90.7114 7.232C90.5274 7.696 90.4354 8.464 90.4354 9.536C90.4354 10.048 90.4514 10.512 90.4834 10.928C90.5154 11.344 90.5714 11.7 90.6514 11.996C90.7394 12.284 90.8594 12.508 91.0114 12.668C91.1714 12.82 91.3754 12.896 91.6234 12.896C91.7274 12.896 91.8394 12.868 91.9594 12.812C92.0874 12.756 92.2034 12.672 92.3074 12.56C92.4194 12.448 92.5114 12.308 92.5834 12.14C92.6554 11.964 92.6914 11.76 92.6914 11.528V10.652H91.5514V9.38H94.3474V14H93.0754V13.208H93.0514C92.8434 13.544 92.5914 13.784 92.2954 13.928C92.0074 14.064 91.6594 14.132 91.2514 14.132C90.7234 14.132 90.2914 14.04 89.9554 13.856C89.6274 13.672 89.3674 13.388 89.1754 13.004C88.9914 12.62 88.8674 12.148 88.8034 11.588C88.7394 11.02 88.7074 10.364 88.7074 9.62C88.7074 8.9 88.7514 8.268 88.8394 7.724C88.9354 7.18 89.0954 6.728 89.3194 6.368C89.5434 6 89.8394 5.724 90.2074 5.54C90.5754 5.356 91.0354 5.264 91.5874 5.264C92.5314 5.264 93.2114 5.5 93.6274 5.972C94.0434 6.436 94.2514 7.104 94.2514 7.976H92.5954ZM42.176 25.772L41.348 21.92H41.324L40.496 25.772H42.176ZM42.404 20.432L44.672 29H42.872L42.476 27.188H40.196L39.8 29H38L40.268 20.432H42.404ZM49.072 22.976C49.072 22.816 49.052 22.652 49.012 22.484C48.98 22.316 48.924 22.164 48.844 22.028C48.764 21.884 48.66 21.768 48.532 21.68C48.412 21.584 48.264 21.536 48.088 21.536C47.672 21.536 47.372 21.768 47.188 22.232C47.004 22.696 46.912 23.464 46.912 24.536C46.912 25.048 46.928 25.512 46.96 25.928C46.992 26.344 47.048 26.7 47.128 26.996C47.216 27.284 47.336 27.508 47.488 27.668C47.648 27.82 47.852 27.896 48.1 27.896C48.204 27.896 48.316 27.868 48.436 27.812C48.564 27.756 48.68 27.672 48.784 27.56C48.896 27.448 48.988 27.308 49.06 27.14C49.132 26.964 49.168 26.76 49.168 26.528V25.652H48.028V24.38H50.824V29H49.552V28.208H49.528C49.32 28.544 49.068 28.784 48.772 28.928C48.484 29.064 48.136 29.132 47.728 29.132C47.2 29.132 46.768 29.04 46.432 28.856C46.104 28.672 45.844 28.388 45.652 28.004C45.468 27.62 45.344 27.148 45.28 26.588C45.216 26.02 45.184 25.364 45.184 24.62C45.184 23.9 45.228 23.268 45.316 22.724C45.412 22.18 45.572 21.728 45.796 21.368C46.02 21 46.316 20.724 46.684 20.54C47.052 20.356 47.512 20.264 48.064 20.264C49.008 20.264 49.688 20.5 50.104 20.972C50.52 21.436 50.728 22.104 50.728 22.976H49.072ZM56.7239 20.432V21.848H53.6639V23.864H56.5439V25.28H53.6639V27.584H56.8439V29H51.9359V20.432H56.7239ZM59.7053 20.432L61.7933 26.3H61.8173V20.432H63.4013V29H61.4333L59.3213 23H59.2973V29H57.7133V20.432H59.7053ZM68.2639 23.324C68.2639 22.7 68.1879 22.248 68.0359 21.968C67.8919 21.68 67.6239 21.536 67.2319 21.536C67.0159 21.536 66.8359 21.596 66.6919 21.716C66.5559 21.828 66.4479 22.016 66.3679 22.28C66.2879 22.536 66.2319 22.876 66.1999 23.3C66.1679 23.716 66.1519 24.228 66.1519 24.836C66.1519 25.484 66.1719 26.008 66.2119 26.408C66.2599 26.808 66.3279 27.12 66.4159 27.344C66.5119 27.56 66.6279 27.708 66.7639 27.788C66.9079 27.86 67.0719 27.896 67.2559 27.896C67.4079 27.896 67.5479 27.872 67.6759 27.824C67.8119 27.768 67.9279 27.664 68.0239 27.512C68.1199 27.352 68.1959 27.132 68.2519 26.852C68.3079 26.564 68.3359 26.188 68.3359 25.724H70.0639C70.0639 26.188 70.0279 26.628 69.9559 27.044C69.8839 27.46 69.7479 27.824 69.5479 28.136C69.3559 28.448 69.0799 28.692 68.7199 28.868C68.3679 29.044 67.9079 29.132 67.3399 29.132C66.6919 29.132 66.1759 29.028 65.7919 28.82C65.4079 28.612 65.1119 28.312 64.9039 27.92C64.7039 27.528 64.5719 27.06 64.5079 26.516C64.4519 25.972 64.4239 25.372 64.4239 24.716C64.4239 24.068 64.4519 23.472 64.5079 22.928C64.5719 22.376 64.7039 21.904 64.9039 21.512C65.1119 21.12 65.4079 20.816 65.7919 20.6C66.1759 20.376 66.6919 20.264 67.3399 20.264C67.9559 20.264 68.4399 20.364 68.7919 20.564C69.1519 20.764 69.4199 21.02 69.5959 21.332C69.7719 21.636 69.8799 21.968 69.9199 22.328C69.9679 22.68 69.9919 23.012 69.9919 23.324H68.2639ZM72.4292 20.432L73.5572 23.744H73.5812L74.7812 20.432H76.6532L74.4332 25.628V29H72.7052V25.628L70.4852 20.432H72.4292Z" fill="url(#paint0_linear_199_2)"/>
<rect x="2" y="1" width="34" height="34" rx="17" fill="#181818"/>
<path d="M19 3C17.0302 3 15.0796 3.38799 13.2597 4.14181C11.4399 4.89563 9.78628 6.00052 8.3934 7.3934C7.00052 8.78628 5.89563 10.4399 5.14181 12.2597C4.38799 14.0796 4 16.0302 4 18C4 19.9698 4.38799 21.9204 5.14181 23.7403C5.89563 25.5601 7.00052 27.2137 8.3934 28.6066C9.78628 29.9995 11.4399 31.1044 13.2597 31.8582C15.0796 32.612 17.0302 33 19 33L19 3Z" fill="url(#paint1_linear_199_2)"/>
<path d="M19 4.875C17.2764 4.875 15.5697 5.21449 13.9773 5.87408C12.3849 6.53367 10.938 7.50046 9.71922 8.71922C8.50045 9.93799 7.53367 11.3849 6.87408 12.9773C6.21449 14.5697 5.875 16.2764 5.875 18C5.875 19.7236 6.21449 21.4303 6.87408 23.0227C7.53367 24.6151 8.50046 26.062 9.71922 27.2808C10.938 28.4995 12.3849 29.4663 13.9773 30.1259C15.5697 30.7855 17.2764 31.125 19 31.125L19 4.875Z" fill="url(#paint2_linear_199_2)"/>
<path d="M19 6.75C17.5226 6.75 16.0597 7.04099 14.6948 7.60636C13.3299 8.17172 12.0897 9.00039 11.045 10.045C10.0004 11.0897 9.17172 12.3299 8.60636 13.6948C8.04099 15.0597 7.75 16.5226 7.75 18C7.75 19.4774 8.04099 20.9403 8.60636 22.3052C9.17172 23.6701 10.0004 24.9103 11.045 25.955C12.0897 26.9996 13.3299 27.8283 14.6948 28.3936C16.0597 28.959 17.5226 29.25 19 29.25L19 6.75Z" fill="url(#paint3_linear_199_2)"/>
<path d="M19 27.375C17.7689 27.375 16.5498 27.1325 15.4123 26.6614C14.2749 26.1902 13.2414 25.4997 12.3709 24.6291C11.5003 23.7586 10.8098 22.7251 10.3386 21.5877C9.86749 20.4502 9.625 19.2311 9.625 18C9.625 16.7689 9.86749 15.5498 10.3386 14.4123C10.8098 13.2749 11.5003 12.2414 12.3709 11.3709C13.2414 10.5003 14.2749 9.80977 15.4123 9.33863C16.5498 8.86749 17.7689 8.625 19 8.625L19 27.375Z" fill="url(#paint4_linear_199_2)"/>
<path d="M19 25.5C18.0151 25.5 17.0398 25.306 16.1299 24.9291C15.2199 24.5522 14.3931 23.9997 13.6967 23.3033C13.0003 22.6069 12.4478 21.7801 12.0709 20.8701C11.694 19.9602 11.5 18.9849 11.5 18C11.5 17.0151 11.694 16.0398 12.0709 15.1299C12.4478 14.2199 13.0003 13.3931 13.6967 12.6967C14.3931 12.0003 15.2199 11.4478 16.1299 11.0709C17.0398 10.694 18.0151 10.5 19 10.5L19 25.5Z" fill="url(#paint5_linear_199_2)"/>
<path d="M19 33C20.9698 33 22.9204 32.612 24.7403 31.8582C26.5601 31.1044 28.2137 29.9995 29.6066 28.6066C30.9995 27.2137 32.1044 25.5601 32.8582 23.7403C33.612 21.9204 34 19.9698 34 18C34 16.0302 33.612 14.0796 32.8582 12.2597C32.1044 10.4399 30.9995 8.78628 29.6066 7.3934C28.2137 6.00052 26.5601 4.89563 24.7403 4.14181C22.9204 3.38799 20.9698 3 19 3L19 33Z" fill="url(#paint6_linear_199_2)"/>
<path d="M19 31.125C20.7236 31.125 22.4303 30.7855 24.0227 30.1259C25.6151 29.4663 27.062 28.4995 28.2808 27.2808C29.4995 26.062 30.4663 24.6151 31.1259 23.0227C31.7855 21.4303 32.125 19.7236 32.125 18C32.125 16.2764 31.7855 14.5697 31.1259 12.9773C30.4663 11.3849 29.4995 9.93799 28.2808 8.71922C27.062 7.50045 25.6151 6.53367 24.0227 5.87408C22.4303 5.21449 20.7236 4.875 19 4.875L19 31.125Z" fill="url(#paint7_linear_199_2)"/>
<path d="M19 29.25C20.4774 29.25 21.9403 28.959 23.3052 28.3936C24.6701 27.8283 25.9103 26.9996 26.955 25.955C27.9996 24.9103 28.8283 23.6701 29.3936 22.3052C29.959 20.9403 30.25 19.4774 30.25 18C30.25 16.5226 29.959 15.0597 29.3936 13.6948C28.8283 12.3299 27.9996 11.0897 26.955 10.045C25.9103 9.00039 24.6701 8.17172 23.3052 7.60635C21.9403 7.04099 20.4774 6.75 19 6.75L19 29.25Z" fill="url(#paint8_linear_199_2)"/>
<path d="M19 8.625C20.2311 8.625 21.4502 8.86749 22.5877 9.33863C23.7251 9.80977 24.7586 10.5003 25.6291 11.3709C26.4997 12.2414 27.1902 13.2749 27.6614 14.4123C28.1325 15.5498 28.375 16.7689 28.375 18C28.375 19.2311 28.1325 20.4502 27.6614 21.5877C27.1902 22.7251 26.4997 23.7586 25.6291 24.6291C24.7586 25.4997 23.7251 26.1902 22.5877 26.6614C21.4502 27.1325 20.2311 27.375 19 27.375L19 8.625Z" fill="url(#paint9_linear_199_2)"/>
<path d="M19 10.5C19.9849 10.5 20.9602 10.694 21.8701 11.0709C22.7801 11.4478 23.6069 12.0003 24.3033 12.6967C24.9997 13.3931 25.5522 14.2199 25.9291 15.1299C26.306 16.0398 26.5 17.0151 26.5 18C26.5 18.9849 26.306 19.9602 25.9291 20.8701C25.5522 21.7801 24.9997 22.6069 24.3033 23.3033C23.6069 23.9997 22.7801 24.5522 21.8701 24.9291C20.9602 25.306 19.9849 25.5 19 25.5L19 10.5Z" fill="url(#paint10_linear_199_2)"/>
</g>
<defs>
<linearGradient id="paint0_linear_199_2" x1="40.28" y1="6.5" x2="84" y2="37.1251" gradientUnits="userSpaceOnUse">
<stop offset="0.0200287" stop-color="#666666"/>
<stop offset="0.505029"/>
<stop offset="1" stop-color="#666666"/>
</linearGradient>
<linearGradient id="paint1_linear_199_2" x1="4" y1="18" x2="22.2812" y2="17.5313" gradientUnits="userSpaceOnUse">
<stop stop-color="white"/>
<stop offset="1" stop-opacity="0"/>
</linearGradient>
<linearGradient id="paint2_linear_199_2" x1="5.875" y1="18" x2="21.8711" y2="17.5898" gradientUnits="userSpaceOnUse">
<stop stop-color="white"/>
<stop offset="1" stop-opacity="0"/>
</linearGradient>
<linearGradient id="paint3_linear_199_2" x1="7.75" y1="18" x2="21.4609" y2="17.6484" gradientUnits="userSpaceOnUse">
<stop stop-color="white"/>
<stop offset="1" stop-opacity="0"/>
</linearGradient>
<linearGradient id="paint4_linear_199_2" x1="9.625" y1="18" x2="21.0508" y2="18.293" gradientUnits="userSpaceOnUse">
<stop stop-color="white"/>
<stop offset="1" stop-opacity="0"/>
</linearGradient>
<linearGradient id="paint5_linear_199_2" x1="11.5" y1="18" x2="19" y2="18" gradientUnits="userSpaceOnUse">
<stop/>
<stop/>
<stop offset="0.985578" stop-color="#E5E5E5"/>
</linearGradient>
<linearGradient id="paint6_linear_199_2" x1="34" y1="18" x2="15.7188" y2="18.4687" gradientUnits="userSpaceOnUse">
<stop stop-color="white"/>
<stop offset="1" stop-opacity="0"/>
</linearGradient>
<linearGradient id="paint7_linear_199_2" x1="32.125" y1="18" x2="16.1289" y2="18.4102" gradientUnits="userSpaceOnUse">
<stop stop-color="white"/>
<stop offset="1" stop-opacity="0"/>
</linearGradient>
<linearGradient id="paint8_linear_199_2" x1="30.25" y1="18" x2="16.5391" y2="18.3516" gradientUnits="userSpaceOnUse">
<stop stop-color="white"/>
<stop offset="1" stop-opacity="0"/>
</linearGradient>
<linearGradient id="paint9_linear_199_2" x1="28.375" y1="18" x2="16.9492" y2="17.707" gradientUnits="userSpaceOnUse">
<stop stop-color="white"/>
<stop offset="1" stop-opacity="0"/>
</linearGradient>
<linearGradient id="paint10_linear_199_2" x1="26.5" y1="18" x2="19" y2="18" gradientUnits="userSpaceOnUse">
<stop/>
<stop offset="1" stop-color="#E5E5E5"/>
</linearGradient>
<clipPath id="clip0_199_2">
<rect width="97" height="36" fill="white"/>
</clipPath>
</defs>
</svg>
