<svg width="97" height="36" viewBox="0 0 97 36" fill="none" xmlns="http://www.w3.org/2000/svg">
<path d="M15 3C13.0302 3 11.0796 3.38799 9.25975 4.14181C7.43986 4.89563 5.78628 6.00052 4.3934 7.3934C3.00052 8.78628 1.89563 10.4399 1.14181 12.2597C0.387986 14.0796 -8.61039e-08 16.0302 0 18C8.61039e-08 19.9698 0.387987 21.9204 1.14181 23.7403C1.89563 25.5601 3.00052 27.2137 4.3934 28.6066C5.78628 29.9995 7.43987 31.1044 9.25975 31.8582C11.0796 32.612 13.0302 33 15 33L15 3Z" fill="url(#paint0_linear_135_89)"/>
<path d="M15 4.875C13.2764 4.875 11.5697 5.21449 9.97728 5.87408C8.38488 6.53367 6.93799 7.50046 5.71922 8.71922C4.50045 9.93799 3.53367 11.3849 2.87408 12.9773C2.21449 14.5697 1.875 16.2764 1.875 18C1.875 19.7236 2.21449 21.4303 2.87408 23.0227C3.53367 24.6151 4.50046 26.062 5.71922 27.2808C6.93799 28.4995 8.38488 29.4663 9.97728 30.1259C11.5697 30.7855 13.2764 31.125 15 31.125L15 4.875Z" fill="url(#paint1_linear_135_89)"/>
<path d="M15 6.75C13.5226 6.75 12.0597 7.04099 10.6948 7.60636C9.3299 8.17172 8.08971 9.00039 7.04505 10.045C6.00039 11.0897 5.17172 12.3299 4.60636 13.6948C4.04099 15.0597 3.75 16.5226 3.75 18C3.75 19.4774 4.04099 20.9403 4.60636 22.3052C5.17172 23.6701 6.00039 24.9103 7.04505 25.955C8.08971 26.9996 9.3299 27.8283 10.6948 28.3936C12.0597 28.959 13.5226 29.25 15 29.25L15 6.75Z" fill="url(#paint2_linear_135_89)"/>
<path d="M15 27.375C13.7689 27.375 12.5498 27.1325 11.4123 26.6614C10.2749 26.1902 9.24142 25.4997 8.37087 24.6291C7.50032 23.7586 6.80977 22.7251 6.33863 21.5877C5.86749 20.4502 5.625 19.2311 5.625 18C5.625 16.7689 5.86749 15.5498 6.33863 14.4123C6.80977 13.2749 7.50033 12.2414 8.37087 11.3709C9.24142 10.5003 10.2749 9.80977 11.4123 9.33863C12.5498 8.86749 13.7689 8.625 15 8.625L15 27.375Z" fill="url(#paint3_linear_135_89)"/>
<path d="M15 25.5C14.0151 25.5 13.0398 25.306 12.1299 24.9291C11.2199 24.5522 10.3931 23.9997 9.6967 23.3033C9.00026 22.6069 8.44781 21.7801 8.0709 20.8701C7.69399 19.9602 7.5 18.9849 7.5 18C7.5 17.0151 7.69399 16.0398 8.0709 15.1299C8.44781 14.2199 9.00026 13.3931 9.6967 12.6967C10.3931 12.0003 11.2199 11.4478 12.1299 11.0709C13.0398 10.694 14.0151 10.5 15 10.5L15 25.5Z" fill="url(#paint4_angular_135_89)"/>
<path d="M15 33C16.9698 33 18.9204 32.612 20.7403 31.8582C22.5601 31.1044 24.2137 29.9995 25.6066 28.6066C26.9995 27.2137 28.1044 25.5601 28.8582 23.7403C29.612 21.9204 30 19.9698 30 18C30 16.0302 29.612 14.0796 28.8582 12.2597C28.1044 10.4399 26.9995 8.78628 25.6066 7.3934C24.2137 6.00052 22.5601 4.89563 20.7402 4.14181C18.9204 3.38799 16.9698 3 15 3L15 33Z" fill="url(#paint5_linear_135_89)"/>
<path d="M15 31.125C16.7236 31.125 18.4303 30.7855 20.0227 30.1259C21.6151 29.4663 23.062 28.4995 24.2808 27.2808C25.4995 26.062 26.4663 24.6151 27.1259 23.0227C27.7855 21.4303 28.125 19.7236 28.125 18C28.125 16.2764 27.7855 14.5697 27.1259 12.9773C26.4663 11.3849 25.4995 9.93799 24.2808 8.71922C23.062 7.50045 21.6151 6.53367 20.0227 5.87408C18.4303 5.21449 16.7236 4.875 15 4.875L15 31.125Z" fill="url(#paint6_linear_135_89)"/>
<path d="M15 29.25C16.4774 29.25 17.9403 28.959 19.3052 28.3936C20.6701 27.8283 21.9103 26.9996 22.955 25.955C23.9996 24.9103 24.8283 23.6701 25.3936 22.3052C25.959 20.9403 26.25 19.4774 26.25 18C26.25 16.5226 25.959 15.0597 25.3936 13.6948C24.8283 12.3299 23.9996 11.0897 22.955 10.045C21.9103 9.00039 20.6701 8.17172 19.3052 7.60635C17.9403 7.04099 16.4774 6.75 15 6.75L15 29.25Z" fill="url(#paint7_linear_135_89)"/>
<path d="M15 8.625C16.2311 8.625 17.4502 8.86749 18.5877 9.33863C19.7251 9.80977 20.7586 10.5003 21.6291 11.3709C22.4997 12.2414 23.1902 13.2749 23.6614 14.4123C24.1325 15.5498 24.375 16.7689 24.375 18C24.375 19.2311 24.1325 20.4502 23.6614 21.5877C23.1902 22.7251 22.4997 23.7586 21.6291 24.6291C20.7586 25.4997 19.7251 26.1902 18.5877 26.6614C17.4502 27.1325 16.2311 27.375 15 27.375L15 8.625Z" fill="url(#paint8_linear_135_89)"/>
<path d="M15 10.5C15.9849 10.5 16.9602 10.694 17.8701 11.0709C18.7801 11.4478 19.6069 12.0003 20.3033 12.6967C20.9997 13.3931 21.5522 14.2199 21.9291 15.1299C22.306 16.0398 22.5 17.0151 22.5 18C22.5 18.9849 22.306 19.9602 21.9291 20.8701C21.5522 21.7801 20.9997 22.6069 20.3033 23.3033C19.6069 23.9997 18.7801 24.5522 17.8701 24.9291C16.9602 25.306 15.9849 25.5 15 25.5L15 10.5Z" fill="url(#paint9_angular_135_89)"/>
<path d="M35.636 5.432H38.204L39.428 11.48H39.452L40.688 5.432H43.244V14H41.66V7.16H41.636L40.112 14H38.768L37.244 7.16H37.22V14H35.636V5.432ZM48.0588 10.772L47.2308 6.92H47.2068L46.3788 10.772H48.0588ZM48.2868 5.432L50.5548 14H48.7548L48.3588 12.188H46.0788L45.6828 14H43.8828L46.1508 5.432H48.2868ZM51.1508 5.432H54.3428C55.0628 5.432 55.6228 5.616 56.0228 5.984C56.4228 6.344 56.6228 6.896 56.6228 7.64C56.6228 8.216 56.5068 8.688 56.2748 9.056C56.0428 9.416 55.6828 9.648 55.1948 9.752V9.776C55.6268 9.84 55.9428 9.98 56.1428 10.196C56.3428 10.412 56.4668 10.76 56.5148 11.24C56.5308 11.4 56.5428 11.576 56.5508 11.768C56.5588 11.952 56.5668 12.16 56.5748 12.392C56.5908 12.848 56.6148 13.196 56.6468 13.436C56.6948 13.676 56.7988 13.84 56.9588 13.928V14H55.0868C54.9988 13.88 54.9428 13.744 54.9188 13.592C54.8948 13.432 54.8788 13.268 54.8708 13.1L54.8228 11.456C54.8068 11.12 54.7228 10.856 54.5708 10.664C54.4188 10.472 54.1628 10.376 53.8028 10.376H52.8788V14H51.1508V5.432ZM52.8788 9.176H53.5988C54.0148 9.176 54.3348 9.08 54.5588 8.888C54.7828 8.688 54.8948 8.356 54.8948 7.892C54.8948 7.1 54.4948 6.704 53.6948 6.704H52.8788V9.176ZM59.5468 5.432V8.864H59.5708L61.7548 5.432H63.6268L61.2988 9.104L63.8908 14H61.9468L60.1828 10.484L59.5468 11.456V14H57.8188V5.432H59.5468ZM69.0521 5.432V6.848H65.9921V8.864H68.8721V10.28H65.9921V12.584H69.1721V14H64.2641V5.432H69.0521ZM75.0574 5.432V6.848H73.1854V14H71.4574V6.848H69.5854V5.432H75.0574ZM75.891 14V5.432H77.619V14H75.891ZM80.8928 5.432L82.9808 11.3H83.0048V5.432H84.5888V14H82.6208L80.5088 8H80.4848V14H78.9008V5.432H80.8928ZM89.5954 7.976C89.5954 7.816 89.5754 7.652 89.5354 7.484C89.5034 7.316 89.4474 7.164 89.3674 7.028C89.2874 6.884 89.1834 6.768 89.0554 6.68C88.9354 6.584 88.7874 6.536 88.6114 6.536C88.1954 6.536 87.8954 6.768 87.7114 7.232C87.5274 7.696 87.4354 8.464 87.4354 9.536C87.4354 10.048 87.4514 10.512 87.4834 10.928C87.5154 11.344 87.5714 11.7 87.6514 11.996C87.7394 12.284 87.8594 12.508 88.0114 12.668C88.1714 12.82 88.3754 12.896 88.6234 12.896C88.7274 12.896 88.8394 12.868 88.9594 12.812C89.0874 12.756 89.2034 12.672 89.3074 12.56C89.4194 12.448 89.5114 12.308 89.5834 12.14C89.6554 11.964 89.6914 11.76 89.6914 11.528V10.652H88.5514V9.38H91.3474V14H90.0754V13.208H90.0514C89.8434 13.544 89.5914 13.784 89.2954 13.928C89.0074 14.064 88.6594 14.132 88.2514 14.132C87.7234 14.132 87.2914 14.04 86.9554 13.856C86.6274 13.672 86.3674 13.388 86.1754 13.004C85.9914 12.62 85.8674 12.148 85.8034 11.588C85.7394 11.02 85.7074 10.364 85.7074 9.62C85.7074 8.9 85.7514 8.268 85.8394 7.724C85.9354 7.18 86.0954 6.728 86.3194 6.368C86.5434 6 86.8394 5.724 87.2074 5.54C87.5754 5.356 88.0354 5.264 88.5874 5.264C89.5314 5.264 90.2114 5.5 90.6274 5.972C91.0434 6.436 91.2514 7.104 91.2514 7.976H89.5954ZM39.176 25.772L38.348 21.92H38.324L37.496 25.772H39.176ZM39.404 20.432L41.672 29H39.872L39.476 27.188H37.196L36.8 29H35L37.268 20.432H39.404ZM46.072 22.976C46.072 22.816 46.052 22.652 46.012 22.484C45.98 22.316 45.924 22.164 45.844 22.028C45.764 21.884 45.66 21.768 45.532 21.68C45.412 21.584 45.264 21.536 45.088 21.536C44.672 21.536 44.372 21.768 44.188 22.232C44.004 22.696 43.912 23.464 43.912 24.536C43.912 25.048 43.928 25.512 43.96 25.928C43.992 26.344 44.048 26.7 44.128 26.996C44.216 27.284 44.336 27.508 44.488 27.668C44.648 27.82 44.852 27.896 45.1 27.896C45.204 27.896 45.316 27.868 45.436 27.812C45.564 27.756 45.68 27.672 45.784 27.56C45.896 27.448 45.988 27.308 46.06 27.14C46.132 26.964 46.168 26.76 46.168 26.528V25.652H45.028V24.38H47.824V29H46.552V28.208H46.528C46.32 28.544 46.068 28.784 45.772 28.928C45.484 29.064 45.136 29.132 44.728 29.132C44.2 29.132 43.768 29.04 43.432 28.856C43.104 28.672 42.844 28.388 42.652 28.004C42.468 27.62 42.344 27.148 42.28 26.588C42.216 26.02 42.184 25.364 42.184 24.62C42.184 23.9 42.228 23.268 42.316 22.724C42.412 22.18 42.572 21.728 42.796 21.368C43.02 21 43.316 20.724 43.684 20.54C44.052 20.356 44.512 20.264 45.064 20.264C46.008 20.264 46.688 20.5 47.104 20.972C47.52 21.436 47.728 22.104 47.728 22.976H46.072ZM53.7239 20.432V21.848H50.6639V23.864H53.5439V25.28H50.6639V27.584H53.8439V29H48.9359V20.432H53.7239ZM56.7053 20.432L58.7933 26.3H58.8173V20.432H60.4013V29H58.4333L56.3213 23H56.2973V29H54.7133V20.432H56.7053ZM65.2639 23.324C65.2639 22.7 65.1879 22.248 65.0359 21.968C64.8919 21.68 64.6239 21.536 64.2319 21.536C64.0159 21.536 63.8359 21.596 63.6919 21.716C63.5559 21.828 63.4479 22.016 63.3679 22.28C63.2879 22.536 63.2319 22.876 63.1999 23.3C63.1679 23.716 63.1519 24.228 63.1519 24.836C63.1519 25.484 63.1719 26.008 63.2119 26.408C63.2599 26.808 63.3279 27.12 63.4159 27.344C63.5119 27.56 63.6279 27.708 63.7639 27.788C63.9079 27.86 64.0719 27.896 64.2559 27.896C64.4079 27.896 64.5479 27.872 64.6759 27.824C64.8119 27.768 64.9279 27.664 65.0239 27.512C65.1199 27.352 65.1959 27.132 65.2519 26.852C65.3079 26.564 65.3359 26.188 65.3359 25.724H67.0639C67.0639 26.188 67.0279 26.628 66.9559 27.044C66.8839 27.46 66.7479 27.824 66.5479 28.136C66.3559 28.448 66.0799 28.692 65.7199 28.868C65.3679 29.044 64.9079 29.132 64.3399 29.132C63.6919 29.132 63.1759 29.028 62.7919 28.82C62.4079 28.612 62.1119 28.312 61.9039 27.92C61.7039 27.528 61.5719 27.06 61.5079 26.516C61.4519 25.972 61.4239 25.372 61.4239 24.716C61.4239 24.068 61.4519 23.472 61.5079 22.928C61.5719 22.376 61.7039 21.904 61.9039 21.512C62.1119 21.12 62.4079 20.816 62.7919 20.6C63.1759 20.376 63.6919 20.264 64.3399 20.264C64.9559 20.264 65.4399 20.364 65.7919 20.564C66.1519 20.764 66.4199 21.02 66.5959 21.332C66.7719 21.636 66.8799 21.968 66.9199 22.328C66.9679 22.68 66.9919 23.012 66.9919 23.324H65.2639ZM69.4292 20.432L70.5572 23.744H70.5812L71.7812 20.432H73.6532L71.4332 25.628V29H69.7052V25.628L67.4852 20.432H69.4292Z" fill="url(#paint10_linear_135_89)"/>
<defs>
<linearGradient id="paint0_linear_135_89" x1="0" y1="18" x2="18.2812" y2="17.5313" gradientUnits="userSpaceOnUse">
<stop stop-color="white"/>
<stop offset="1" stop-opacity="0"/>
</linearGradient>
<linearGradient id="paint1_linear_135_89" x1="1.875" y1="18" x2="17.8711" y2="17.5898" gradientUnits="userSpaceOnUse">
<stop stop-color="white"/>
<stop offset="1" stop-opacity="0"/>
</linearGradient>
<linearGradient id="paint2_linear_135_89" x1="3.75" y1="18" x2="17.4609" y2="17.6484" gradientUnits="userSpaceOnUse">
<stop stop-color="white"/>
<stop offset="1" stop-opacity="0"/>
</linearGradient>
<linearGradient id="paint3_linear_135_89" x1="5.625" y1="18" x2="17.0508" y2="18.293" gradientUnits="userSpaceOnUse">
<stop stop-color="white"/>
<stop offset="1" stop-opacity="0"/>
</linearGradient>
<radialGradient id="paint4_angular_135_89" cx="0" cy="0" r="1" gradientUnits="userSpaceOnUse" gradientTransform="translate(11.25 18) scale(5.39063)">
<stop stop-opacity="0"/>
<stop stop-color="white"/>
</radialGradient>
<linearGradient id="paint5_linear_135_89" x1="30" y1="18" x2="11.7188" y2="18.4687" gradientUnits="userSpaceOnUse">
<stop stop-color="white"/>
<stop offset="1" stop-opacity="0"/>
</linearGradient>
<linearGradient id="paint6_linear_135_89" x1="28.125" y1="18" x2="12.1289" y2="18.4102" gradientUnits="userSpaceOnUse">
<stop stop-color="white"/>
<stop offset="1" stop-opacity="0"/>
</linearGradient>
<linearGradient id="paint7_linear_135_89" x1="26.25" y1="18" x2="12.5391" y2="18.3516" gradientUnits="userSpaceOnUse">
<stop stop-color="white"/>
<stop offset="1" stop-opacity="0"/>
</linearGradient>
<linearGradient id="paint8_linear_135_89" x1="24.375" y1="18" x2="12.9492" y2="17.707" gradientUnits="userSpaceOnUse">
<stop stop-color="white"/>
<stop offset="1" stop-opacity="0"/>
</linearGradient>
<radialGradient id="paint9_angular_135_89" cx="0" cy="0" r="1" gradientUnits="userSpaceOnUse" gradientTransform="translate(18.75 18) rotate(-180) scale(5.39063)">
<stop stop-opacity="0"/>
<stop stop-color="white"/>
</radialGradient>
<linearGradient id="paint10_linear_135_89" x1="90.29" y1="32" x2="41.1941" y2="-1.70195" gradientUnits="userSpaceOnUse">
<stop stop-color="white"/>
<stop offset="0.521639" stop-color="#999999"/>
<stop offset="1" stop-color="white"/>
</linearGradient>
</defs>
</svg>
