<svg width="60" height="60" viewBox="0 0 60 60" fill="none" xmlns="http://www.w3.org/2000/svg">
<rect width="60" height="60" rx="30" fill="#181818"/>
<path d="M30 15C28.0302 15 26.0796 15.388 24.2597 16.1418C22.4399 16.8956 20.7863 18.0005 19.3934 19.3934C18.0005 20.7863 16.8956 22.4399 16.1418 24.2597C15.388 26.0796 15 28.0302 15 30C15 31.9698 15.388 33.9204 16.1418 35.7403C16.8956 37.5601 18.0005 39.2137 19.3934 40.6066C20.7863 41.9995 22.4399 43.1044 24.2598 43.8582C26.0796 44.612 28.0302 45 30 45L30 15Z" fill="url(#paint0_linear_135_75)"/>
<path d="M30 16.875C28.2764 16.875 26.5697 17.2145 24.9773 17.8741C23.3849 18.5337 21.938 19.5005 20.7192 20.7192C19.5005 21.938 18.5337 23.3849 17.8741 24.9773C17.2145 26.5697 16.875 28.2764 16.875 30C16.875 31.7236 17.2145 33.4303 17.8741 35.0227C18.5337 36.6151 19.5005 38.062 20.7192 39.2808C21.938 40.4995 23.3849 41.4663 24.9773 42.1259C26.5697 42.7855 28.2764 43.125 30 43.125L30 16.875Z" fill="url(#paint1_linear_135_75)"/>
<path d="M30 18.75C28.5226 18.75 27.0597 19.041 25.6948 19.6064C24.3299 20.1717 23.0897 21.0004 22.045 22.045C21.0004 23.0897 20.1717 24.3299 19.6064 25.6948C19.041 27.0597 18.75 28.5226 18.75 30C18.75 31.4774 19.041 32.9403 19.6064 34.3052C20.1717 35.6701 21.0004 36.9103 22.045 37.955C23.0897 38.9996 24.3299 39.8283 25.6948 40.3936C27.0597 40.959 28.5226 41.25 30 41.25L30 18.75Z" fill="url(#paint2_linear_135_75)"/>
<path d="M30 39.375C28.7689 39.375 27.5498 39.1325 26.4123 38.6614C25.2749 38.1902 24.2414 37.4997 23.3709 36.6291C22.5003 35.7586 21.8098 34.7251 21.3386 33.5877C20.8675 32.4502 20.625 31.2311 20.625 30C20.625 28.7689 20.8675 27.5498 21.3386 26.4123C21.8098 25.2749 22.5003 24.2414 23.3709 23.3709C24.2414 22.5003 25.2749 21.8098 26.4123 21.3386C27.5498 20.8675 28.7689 20.625 30 20.625L30 39.375Z" fill="url(#paint3_linear_135_75)"/>
<path d="M30 37.5C29.0151 37.5 28.0398 37.306 27.1299 36.9291C26.2199 36.5522 25.3931 35.9997 24.6967 35.3033C24.0003 34.6069 23.4478 33.7801 23.0709 32.8701C22.694 31.9602 22.5 30.9849 22.5 30C22.5 29.0151 22.694 28.0398 23.0709 27.1299C23.4478 26.2199 24.0003 25.3931 24.6967 24.6967C25.3931 24.0003 26.2199 23.4478 27.1299 23.0709C28.0398 22.694 29.0151 22.5 30 22.5L30 37.5Z" fill="url(#paint4_angular_135_75)"/>
<path d="M30 45C31.9698 45 33.9204 44.612 35.7403 43.8582C37.5601 43.1044 39.2137 41.9995 40.6066 40.6066C41.9995 39.2137 43.1044 37.5601 43.8582 35.7403C44.612 33.9204 45 31.9698 45 30C45 28.0302 44.612 26.0796 43.8582 24.2597C43.1044 22.4399 41.9995 20.7863 40.6066 19.3934C39.2137 18.0005 37.5601 16.8956 35.7402 16.1418C33.9204 15.388 31.9698 15 30 15L30 45Z" fill="url(#paint5_linear_135_75)"/>
<path d="M30 43.125C31.7236 43.125 33.4303 42.7855 35.0227 42.1259C36.6151 41.4663 38.062 40.4995 39.2808 39.2808C40.4995 38.062 41.4663 36.6151 42.1259 35.0227C42.7855 33.4303 43.125 31.7236 43.125 30C43.125 28.2764 42.7855 26.5697 42.1259 24.9773C41.4663 23.3849 40.4995 21.938 39.2808 20.7192C38.062 19.5005 36.6151 18.5337 35.0227 17.8741C33.4303 17.2145 31.7236 16.875 30 16.875L30 43.125Z" fill="url(#paint6_linear_135_75)"/>
<path d="M30 41.25C31.4774 41.25 32.9403 40.959 34.3052 40.3936C35.6701 39.8283 36.9103 38.9996 37.955 37.955C38.9996 36.9103 39.8283 35.6701 40.3936 34.3052C40.959 32.9403 41.25 31.4774 41.25 30C41.25 28.5226 40.959 27.0597 40.3936 25.6948C39.8283 24.3299 38.9996 23.0897 37.955 22.045C36.9103 21.0004 35.6701 20.1717 34.3052 19.6064C32.9403 19.041 31.4774 18.75 30 18.75L30 41.25Z" fill="url(#paint7_linear_135_75)"/>
<path d="M30 20.625C31.2311 20.625 32.4502 20.8675 33.5877 21.3386C34.7251 21.8098 35.7586 22.5003 36.6291 23.3709C37.4997 24.2414 38.1902 25.2749 38.6614 26.4123C39.1325 27.5498 39.375 28.7689 39.375 30C39.375 31.2311 39.1325 32.4502 38.6614 33.5877C38.1902 34.7251 37.4997 35.7586 36.6291 36.6291C35.7586 37.4997 34.7251 38.1902 33.5877 38.6614C32.4502 39.1325 31.2311 39.375 30 39.375L30 20.625Z" fill="url(#paint8_linear_135_75)"/>
<path d="M30 22.5C30.9849 22.5 31.9602 22.694 32.8701 23.0709C33.7801 23.4478 34.6069 24.0003 35.3033 24.6967C35.9997 25.3931 36.5522 26.2199 36.9291 27.1299C37.306 28.0398 37.5 29.0151 37.5 30C37.5 30.9849 37.306 31.9602 36.9291 32.8701C36.5522 33.7801 35.9997 34.6069 35.3033 35.3033C34.6069 35.9997 33.7801 36.5522 32.8701 36.9291C31.9602 37.306 30.9849 37.5 30 37.5L30 22.5Z" fill="url(#paint9_angular_135_75)"/>
<defs>
<linearGradient id="paint0_linear_135_75" x1="15" y1="30" x2="33.2812" y2="29.5313" gradientUnits="userSpaceOnUse">
<stop stop-color="white"/>
<stop offset="1" stop-opacity="0"/>
</linearGradient>
<linearGradient id="paint1_linear_135_75" x1="16.875" y1="30" x2="32.8711" y2="29.5898" gradientUnits="userSpaceOnUse">
<stop stop-color="white"/>
<stop offset="1" stop-opacity="0"/>
</linearGradient>
<linearGradient id="paint2_linear_135_75" x1="18.75" y1="30" x2="32.4609" y2="29.6484" gradientUnits="userSpaceOnUse">
<stop stop-color="white"/>
<stop offset="1" stop-opacity="0"/>
</linearGradient>
<linearGradient id="paint3_linear_135_75" x1="20.625" y1="30" x2="32.0508" y2="30.293" gradientUnits="userSpaceOnUse">
<stop stop-color="white"/>
<stop offset="1" stop-opacity="0"/>
</linearGradient>
<radialGradient id="paint4_angular_135_75" cx="0" cy="0" r="1" gradientUnits="userSpaceOnUse" gradientTransform="translate(26.25 30) scale(5.39063)">
<stop stop-opacity="0"/>
<stop stop-color="white"/>
</radialGradient>
<linearGradient id="paint5_linear_135_75" x1="45" y1="30" x2="26.7188" y2="30.4687" gradientUnits="userSpaceOnUse">
<stop stop-color="white"/>
<stop offset="1" stop-opacity="0"/>
</linearGradient>
<linearGradient id="paint6_linear_135_75" x1="43.125" y1="30" x2="27.1289" y2="30.4102" gradientUnits="userSpaceOnUse">
<stop stop-color="white"/>
<stop offset="1" stop-opacity="0"/>
</linearGradient>
<linearGradient id="paint7_linear_135_75" x1="41.25" y1="30" x2="27.5391" y2="30.3516" gradientUnits="userSpaceOnUse">
<stop stop-color="white"/>
<stop offset="1" stop-opacity="0"/>
</linearGradient>
<linearGradient id="paint8_linear_135_75" x1="39.375" y1="30" x2="27.9492" y2="29.707" gradientUnits="userSpaceOnUse">
<stop stop-color="white"/>
<stop offset="1" stop-opacity="0"/>
</linearGradient>
<radialGradient id="paint9_angular_135_75" cx="0" cy="0" r="1" gradientUnits="userSpaceOnUse" gradientTransform="translate(33.75 30) rotate(-180) scale(5.39063)">
<stop stop-opacity="0"/>
<stop stop-color="white"/>
</radialGradient>
</defs>
</svg>
